<svg width="54" height="54" viewBox="0 0 54 54" fill="none" xmlns="http://www.w3.org/2000/svg">
<path d="M26.6327 23.3875C28.1996 23.3873 29.751 23.6988 31.1964 24.304C32.6418 24.9093 33.9523 25.796 35.0517 26.9126C36.151 28.0293 37.0172 29.3535 37.5998 30.8081C38.1824 32.2628 38.4698 33.8188 38.4452 35.3856C38.4412 35.645 38.4971 35.9018 38.6085 36.1361C38.72 36.3704 38.8839 36.5759 39.0876 36.7365C39.2914 36.8971 39.5294 37.0086 39.7832 37.0623C40.037 37.116 40.2998 37.1105 40.5512 37.0461C41.2995 36.8544 42.0818 36.8361 42.8382 36.9927C43.5947 37.1493 44.3054 37.4766 44.9162 37.9496C45.5269 38.4226 46.0216 39.0289 46.3624 39.7222C46.7032 40.4155 46.8811 41.1774 46.8827 41.95C46.8827 43.2926 46.3493 44.5803 45.3999 45.5297C44.4505 46.4791 43.1628 47.0125 41.8202 47.0125H13.1327C12.2352 47.0074 11.3479 46.8234 10.5224 46.4713C9.69694 46.1192 8.94998 45.606 8.32521 44.9618C7.70044 44.3176 7.2104 43.5553 6.88377 42.7194C6.55713 41.8835 6.40045 40.9909 6.42289 40.0938C6.44533 39.1966 6.64644 38.313 7.01445 37.4945C7.38247 36.676 7.91001 35.9391 8.5662 35.3269C9.2224 34.7148 9.99408 34.2396 10.8361 33.9292C11.6781 33.6188 12.5736 33.4794 13.4702 33.5192C13.859 33.5392 14.2429 33.4241 14.5566 33.1935C14.8703 32.9628 15.0946 32.6307 15.1914 32.2536C15.846 29.7166 17.3251 27.4691 19.3961 25.8643C21.4671 24.2594 24.0126 23.3881 26.6327 23.3875ZM41.729 33.5125C41.3493 30.0907 39.8183 26.8994 37.3869 24.4619C34.9556 22.0244 31.7683 20.4853 28.3474 20.097C24.9266 19.7086 21.4754 20.494 18.5595 22.3244C15.6436 24.1548 13.4362 26.9216 12.299 30.1712C9.69333 30.3845 7.27113 31.5974 5.53946 33.5561C3.80779 35.5148 2.90089 38.0674 3.00861 40.6796C3.11632 43.2918 4.2303 45.7611 6.11735 47.5706C8.0044 49.38 10.5182 50.3894 13.1327 50.3875H41.8202C44.0579 50.3875 46.204 49.4985 47.7864 47.9162C49.3687 46.3338 50.2577 44.1877 50.2577 41.95C50.2577 39.7122 49.3687 37.5661 47.7864 35.9837C46.204 34.4014 44.0579 33.5125 41.8202 33.5125H41.729V33.5125Z" fill="black"/>
</svg>
